<svg xmlns="http://www.w3.org/2000/svg" xmlns:xlink="http://www.w3.org/1999/xlink" width="1011" height="637.5" viewBox="0 0 1011 637.5" fill="none">
<g  clip-path="url(#clip-path-FUorXBsMv8)">
<path     fill="#6200EA"  d="M0 637.5L1011 637.5L1011 0L0 0L0 637.5Z">
</path>
<g opacity="0.25">
<path d="M547.56 -4.55L651.51 -108.5C633.03 -97.9397 615.936 -85.3337 600.426 -71.0125L585.048 -55.6341C570.726 -40.1903 558.12 -23.0302 547.56 -4.55Z"   fill="#FFFFFF" >
</path>
<path d="M516.54 78.08L734.14 -139.52C728.134 -138.332 722.194 -136.881 716.321 -135.296L520.764 60.2607C519.114 66.1337 517.728 72.0742 516.54 78.08Z"   fill="#FFFFFF" >
</path>
<path d="M511 133.388C511 133.982 511 134.576 511 135.17L791.17 -145C790.576 -145 789.982 -145 789.388 -145C785.362 -145 781.336 -144.868 777.31 -144.737L511.263 121.31C511.132 125.336 511 129.295 511 133.388Z"   fill="#FFFFFF" >
</path>
<path d="M515.351 182.43L838.56 -140.77C834.666 -141.434 830.705 -142.093 826.811 -142.62L513.57 170.614C514.031 174.642 514.626 178.536 515.351 182.43Z"   fill="#FFFFFF" >
</path>
<path d="M525.913 223.48L879.54 -130.148C876.107 -131.337 872.678 -132.393 869.245 -133.45L522.68 213.118C523.669 216.616 524.725 220.046 525.913 223.48Z"   fill="#FFFFFF" >
</path>
<path d="M541.298 259.71L915.85 -114.837C912.814 -116.357 909.778 -117.873 906.677 -119.26L536.81 250.535C538.262 253.639 539.714 256.674 541.298 259.71Z"   fill="#FFFFFF" >
</path>
<path d="M560.56 291.99L948.05 -95.502C945.343 -97.3489 942.64 -99.1998 939.933 -100.98L555.15 283.804C556.934 286.579 558.714 289.282 560.56 291.99Z"   fill="#FFFFFF" >
</path>
<path d="M583.463 320.7L976.76 -72.5959C974.386 -74.7739 971.944 -76.8839 969.501 -78.9301L577.06 313.507C579.17 315.948 581.285 318.322 583.463 320.7Z"   fill="#FFFFFF" >
</path>
<path d="M609.741 346.04L1002.11 -46.3287C1000.06 -48.7704 997.954 -51.2122 995.772 -53.59L602.48 339.706C604.858 341.884 607.299 343.994 609.741 346.04Z"   fill="#FFFFFF" >
</path>
<path d="M639.433 367.96L1024.08 -16.6915C1022.3 -19.4645 1020.52 -22.1706 1018.6 -24.8101L631.25 362.548C633.957 364.398 636.663 366.244 639.433 367.96Z"   fill="#FFFFFF" >
</path>
<path d="M672.762 386.24L1042.3 16.7024C1040.85 13.6007 1039.4 10.5673 1037.88 7.53003L663.59 381.817C666.627 383.335 669.661 384.79 672.762 386.24Z"   fill="#FFFFFF" >
</path>
<path d="M710.257 400.36L1056.49 54.1849C1055.43 50.6879 1054.38 47.2551 1053.26 43.89L699.96 397.191C703.326 398.246 706.759 399.305 710.257 400.36Z"   fill="#FFFFFF" >
</path>
<path d="M752.758 409.4L1065.47 96.6925C1064.94 92.7334 1064.35 88.8391 1063.69 84.88L741.01 407.553C744.903 408.277 748.797 408.871 752.758 409.4Z"   fill="#FFFFFF" >
</path>
<path d="M789.459 411.84C793.752 411.84 798.041 411.709 802.264 411.51L1067.59 146.191C1067.79 141.965 1067.92 137.677 1067.92 133.387C1067.92 133.057 1067.92 132.66 1067.92 132.33L788.47 411.773C788.733 411.773 789.13 411.84 789.459 411.84Z"   fill="#FFFFFF" >
</path>
<path d="M863.572 401.813L1057.88 207.507C1059.53 201.632 1060.98 195.627 1062.17 189.62L845.62 406.17C851.692 404.916 857.699 403.463 863.572 401.813Z"   fill="#FFFFFF" >
</path>
<path d="M1030.35 273.05L929.11 374.29C971.018 349.937 1006 314.958 1030.35 273.05Z"   fill="#FFFFFF" >
</path>
</g>
<g opacity="0.25">
<path d="M-252.2 300.23L-127.69 175.72C-149.826 188.369 -170.3 203.468 -188.878 220.622L-207.298 239.042C-224.452 257.54 -239.551 278.095 -252.2 300.23Z"   fill="#FFFFFF" >
</path>
<path d="M-289.36 399.21L-28.7099 138.56C-35.9038 139.983 -43.0195 141.722 -50.0545 143.619L-284.301 377.865C-286.276 384.9 -287.937 392.016 -289.36 399.21Z"   fill="#FFFFFF" >
</path>
<path d="M-296 465.466C-296 466.177 -296 466.889 -296 467.6L39.59 132C38.8785 132 38.1671 132 37.4557 132C32.6332 132 27.8108 132.158 22.9884 132.315L-295.685 450.998C-295.842 455.82 -296 460.562 -296 465.466Z"   fill="#FFFFFF" >
</path>
<path d="M-290.787 524.2L96.3501 137.065C91.6866 136.271 86.9414 135.481 82.278 134.85L-292.92 510.047C-292.367 514.871 -291.655 519.536 -290.787 524.2Z"   fill="#FFFFFF" >
</path>
<path d="M-278.137 573.37L145.45 149.785C141.338 148.361 137.23 147.095 133.118 145.83L-282.01 560.958C-280.826 565.148 -279.56 569.257 -278.137 573.37Z"   fill="#FFFFFF" >
</path>
<path d="M-259.714 616.77L188.93 168.127C185.293 166.307 181.657 164.491 177.943 162.83L-265.09 605.78C-263.351 609.498 -261.612 613.134 -259.714 616.77Z"   fill="#FFFFFF" >
</path>
<path d="M-236.629 655.43L227.51 191.292C224.268 189.079 221.03 186.862 217.787 184.73L-243.11 645.625C-240.973 648.948 -238.841 652.187 -236.629 655.43Z"   fill="#FFFFFF" >
</path>
<path d="M-209.2 689.83L261.9 218.727C259.056 216.118 256.131 213.591 253.205 211.14L-216.87 681.214C-214.342 684.138 -211.81 686.982 -209.2 689.83Z"   fill="#FFFFFF" >
</path>
<path d="M-177.732 720.18L292.26 250.188C289.809 247.263 287.281 244.338 284.668 241.49L-186.43 712.593C-183.582 715.202 -180.657 717.729 -177.732 720.18Z"   fill="#FFFFFF" >
</path>
<path d="M-142.159 746.43L318.58 285.685C316.444 282.363 314.312 279.122 312.016 275.96L-151.96 739.947C-148.718 742.163 -145.476 744.374 -142.159 746.43Z"   fill="#FFFFFF" >
</path>
<path d="M-102.233 768.33L340.41 325.687C338.672 321.972 336.93 318.338 335.111 314.7L-113.22 763.032C-109.582 764.851 -105.949 766.593 -102.233 768.33Z"   fill="#FFFFFF" >
</path>
<path d="M-57.3267 785.24L357.4 370.591C356.136 366.403 354.872 362.291 353.526 358.26L-69.6602 781.444C-65.6287 782.708 -61.5161 783.976 -57.3267 785.24Z"   fill="#FFFFFF" >
</path>
<path d="M-6.41758 796.07L368.15 421.5C367.516 416.757 366.805 412.092 366.016 407.35L-20.4902 793.858C-15.8266 794.725 -11.1629 795.437 -6.41758 796.07Z"   fill="#FFFFFF" >
</path>
<path d="M37.535 799C42.6765 799 47.8146 798.843 52.8724 798.605L370.685 480.803C370.923 475.741 371.08 470.605 371.08 465.465C371.08 465.07 371.08 464.595 371.08 464.2L36.3501 798.92C36.6647 798.92 37.1401 799 37.535 799Z"   fill="#FFFFFF" >
</path>
<path d="M126.322 786.981L359.062 554.245C361.038 547.208 362.776 540.015 364.2 532.82L104.82 792.2C112.093 790.698 119.288 788.958 126.322 786.981Z"   fill="#FFFFFF" >
</path>
<path d="M326.09 632.74L204.82 754.01C255.02 724.839 296.918 682.94 326.09 632.74Z"   fill="#FFFFFF" >
</path>
</g>
</g>
<defs>
<clipPath id="clip-path-FUorXBsMv8">
<path d="M0 637.5L1011 637.5L1011 0L0 0L0 637.5Z" fill="white"/>
</clipPath>
</defs>
</svg>
